<?xml version="1.0" encoding="UTF-8" standalone="no"?>
<!DOCTYPE svg PUBLIC "-//W3C//DTD SVG 1.0//EN"
 "http://www.w3.org/TR/2001/REC-SVG-20010904/DTD/svg10.dtd" [
 <!ATTLIST svg xmlns:xlink CDATA #FIXED "http://www.w3.org/1999/xlink">
]>
<!-- Generated by Graphviz version 2.20.3 (Wed Oct &#160;8 06:02:12 UTC 2008)
     For user: mickg -->
<!-- Title: G Pages: 1 -->
<svg width="502pt" height="2772pt"
 viewBox="0.00 0.00 502.00 2772.00" xmlns="http://www.w3.org/2000/svg" xmlns:xlink="http://www.w3.org/1999/xlink">
<g id="graph0" class="graph" transform="scale(1 1) rotate(0) translate(4 2768)">
<title>G</title>
<polygon style="fill:white;stroke:white;" points="-4,4 -4,-2768 498,-2768 498,4 -4,4"/>
<!-- 6 -->
<g id="node1" class="node"><title>6</title>
<ellipse style="fill:none;stroke:black;" cx="277" cy="-1819" rx="65.7609" ry="50.9117"/>
<text text-anchor="start" x="238.5" y="-1822.4" style="font-family:Times New Roman;font-size:14.00;">id(6) at line=7</text>
<text text-anchor="start" x="238.5" y="-1790.4" style="font-family:Times New Roman;font-size:14.00;">1</text>
</g>
<!-- 7 -->
<g id="node2" class="node"><title>7</title>
<ellipse style="fill:none;stroke:black;" cx="277" cy="-1658" rx="115.966" ry="73.5391"/>
<text text-anchor="start" x="203" y="-1677.4" style="font-family:Times New Roman;font-size:14.00;">id(7) at line=&#45;1</text>
<text text-anchor="start" x="203" y="-1645.4" style="font-family:Times New Roman;font-size:14.00;">if alpha&#45;&gt;</text>
<text text-anchor="start" x="203" y="-1629.4" style="font-family:Times New Roman;font-size:14.00;"> &#160;&#160;&#160;if bet ... 61 ... &#160;&#160;&#160;return a</text>
<text text-anchor="start" x="203" y="-1613.4" style="font-family:Times New Roman;font-size:14.00;">return b</text>
</g>
<!-- 6&#45;&#45;7 -->
<g id="edge2" class="edge"><title>6&#45;&#45;7</title>
<path style="fill:none;stroke:black;" d="M277,-1768C277,-1759 277,-1751 277,-1742"/>
<polygon style="fill:none;stroke:black;" points="280.5,-1742 277,-1732 273.5,-1742 280.5,-1742"/>
</g>
<!-- 8 -->
<g id="node29" class="node"><title>8</title>
<ellipse style="fill:none;stroke:black;" cx="277" cy="-1463" rx="101.116" ry="84.8528"/>
<text text-anchor="start" x="213.5" y="-1490.4" style="font-family:Times New Roman;font-size:14.00;">id(8) at line=2</text>
<text text-anchor="start" x="213.5" y="-1458.4" style="font-family:Times New Roman;font-size:14.00;">if alpha&#45;&gt;</text>
<text text-anchor="start" x="213.5" y="-1442.4" style="font-family:Times New Roman;font-size:14.00;"> &#160;&#160;&#160;if bet ... 53 ... turn c</text>
<text text-anchor="start" x="213.5" y="-1426.4" style="font-family:Times New Roman;font-size:14.00;"> &#160;&#160;&#160;return a</text>
</g>
<!-- 7&#45;&#45;8 -->
<g id="edge42" class="edge"><title>7&#45;&#45;8</title>
<path style="fill:none;stroke:black;" d="M277,-1584C277,-1575 277,-1567 277,-1558"/>
<polygon style="fill:none;stroke:black;" points="280.5,-1558 277,-1548 273.5,-1558 280.5,-1558"/>
</g>
<!-- 20 -->
<g id="node4" class="node"><title>20</title>
<ellipse style="fill:none;stroke:black;" cx="277" cy="-360" rx="70.2092" ry="62.2254"/>
<text text-anchor="start" x="235" y="-371.4" style="font-family:Times New Roman;font-size:14.00;">id(20) at line=8</text>
<text text-anchor="start" x="235" y="-339.4" style="font-family:Times New Roman;font-size:14.00;">print _z__og_</text>
</g>
<!-- 21 -->
<g id="node5" class="node"><title>21</title>
<ellipse style="fill:none;stroke:black;" cx="277" cy="-211" rx="70.2092" ry="50.9117"/>
<text text-anchor="start" x="235" y="-214.4" style="font-family:Times New Roman;font-size:14.00;">id(21) at line=8</text>
<text text-anchor="start" x="235" y="-182.4" style="font-family:Times New Roman;font-size:14.00;">_z__og_</text>
</g>
<!-- 20&#45;&#45;21 -->
<g id="edge4" class="edge"><title>20&#45;&#45;21</title>
<path style="fill:none;stroke:black;" d="M277,-298C277,-289 277,-281 277,-272"/>
<polygon style="fill:none;stroke:black;" points="280.5,-272 277,-262 273.5,-272 280.5,-272"/>
</g>
<!-- 25 -->
<g id="node24" class="node"><title>25</title>
<ellipse style="fill:none;stroke:black;" cx="277" cy="-62" rx="77.9889" ry="62.2254"/>
<text text-anchor="start" x="229.5" y="-73.4" style="font-family:Times New Roman;font-size:14.00;">id(25) at line=9</text>
<text text-anchor="start" x="229.5" y="-41.4" style="font-family:Times New Roman;font-size:14.00;">print _as[]{\%d_</text>
</g>
<!-- 21&#45;&#45;25 -->
<g id="edge20" class="edge"><title>21&#45;&#45;25</title>
<path style="fill:none;stroke:black;" d="M277,-160C277,-151 277,-143 277,-134"/>
<polygon style="fill:none;stroke:black;" points="280.5,-134 277,-124 273.5,-134 280.5,-134"/>
</g>
<!-- 10 -->
<g id="node7" class="node"><title>10</title>
<ellipse style="fill:none;stroke:black;" cx="226" cy="-1130" rx="74.2462" ry="73.5391"/>
<text text-anchor="start" x="181.5" y="-1149.4" style="font-family:Times New Roman;font-size:14.00;">id(10) at line=&#45;1</text>
<text text-anchor="start" x="181.5" y="-1117.4" style="font-family:Times New Roman;font-size:14.00;">if beta&#45;&gt;</text>
<text text-anchor="start" x="181.5" y="-1101.4" style="font-family:Times New Roman;font-size:14.00;"> &#160;&#160;&#160;return c</text>
<text text-anchor="start" x="181.5" y="-1085.4" style="font-family:Times New Roman;font-size:14.00;">return a</text>
</g>
<!-- 11 -->
<g id="node8" class="node"><title>11</title>
<ellipse style="fill:none;stroke:black;" cx="226" cy="-946" rx="70.2092" ry="73.5391"/>
<text text-anchor="start" x="184" y="-965.4" style="font-family:Times New Roman;font-size:14.00;">id(11) at line=3</text>
<text text-anchor="start" x="184" y="-933.4" style="font-family:Times New Roman;font-size:14.00;">if beta&#45;&gt;</text>
<text text-anchor="start" x="184" y="-917.4" style="font-family:Times New Roman;font-size:14.00;"> &#160;&#160;&#160;return c</text>
</g>
<!-- 10&#45;&#45;11 -->
<g id="edge6" class="edge"><title>10&#45;&#45;11</title>
<path style="fill:none;stroke:black;" d="M226,-1056C226,-1047 226,-1039 226,-1030"/>
<polygon style="fill:none;stroke:black;" points="229.5,-1030 226,-1020 222.5,-1030 229.5,-1030"/>
</g>
<!-- 12 -->
<g id="node10" class="node"><title>12</title>
<ellipse style="fill:none;stroke:black;" cx="226" cy="-785" rx="70.2092" ry="50.9117"/>
<text text-anchor="start" x="184" y="-788.4" style="font-family:Times New Roman;font-size:14.00;">id(12) at line=3</text>
<text text-anchor="start" x="184" y="-756.4" style="font-family:Times New Roman;font-size:14.00;">beta</text>
</g>
<!-- 11&#45;&#45;12 -->
<g id="edge16" class="edge"><title>11&#45;&#45;12</title>
<path style="fill:none;stroke:black;" d="M226,-872C226,-863 226,-855 226,-846"/>
<polygon style="fill:none;stroke:black;" points="229.5,-846 226,-836 222.5,-846 229.5,-846"/>
</g>
<!-- 13 -->
<g id="node11" class="node"><title>13</title>
<ellipse style="fill:none;stroke:black;" cx="97" cy="-647" rx="74.2462" ry="50.9117"/>
<text text-anchor="start" x="52.5" y="-650.4" style="font-family:Times New Roman;font-size:14.00;">id(13) at line=&#45;1</text>
<text text-anchor="start" x="52.5" y="-618.4" style="font-family:Times New Roman;font-size:14.00;">return c</text>
</g>
<!-- 12&#45;&#45;13 -->
<g id="edge8" class="edge"><title>12&#45;&#45;13</title>
<path style="fill:none;stroke:black;" d="M187,-743C173,-729 158,-713 145,-698"/>
<polygon style="fill:none;stroke:black;" points="147.219,-695.221 138,-690 141.951,-699.831 147.219,-695.221"/>
</g>
<!-- 16 -->
<g id="node13" class="node"><title>16</title>
<ellipse style="fill:none;stroke:black;" cx="228" cy="-509" rx="70.2092" ry="50.9117"/>
<text text-anchor="start" x="186" y="-512.4" style="font-family:Times New Roman;font-size:14.00;">id(16) at line=5</text>
<text text-anchor="start" x="186" y="-480.4" style="font-family:Times New Roman;font-size:14.00;">return a</text>
</g>
<!-- 12&#45;&#45;16 -->
<g id="edge10" class="edge"><title>12&#45;&#45;16</title>
<path style="fill:none;stroke:black;" d="M226,-734C227,-687 227,-620 228,-570"/>
<polygon style="fill:none;stroke:black;" points="231.5,-570 228,-560 224.5,-570 231.5,-570"/>
</g>
<!-- 14 -->
<g id="node22" class="node"><title>14</title>
<ellipse style="fill:none;stroke:black;" cx="70" cy="-509" rx="70.2092" ry="50.9117"/>
<text text-anchor="start" x="28" y="-512.4" style="font-family:Times New Roman;font-size:14.00;">id(14) at line=4</text>
<text text-anchor="start" x="28" y="-480.4" style="font-family:Times New Roman;font-size:14.00;">return c</text>
</g>
<!-- 13&#45;&#45;14 -->
<g id="edge38" class="edge"><title>13&#45;&#45;14</title>
<path style="fill:none;stroke:black;" d="M87,-596C86,-587 84,-579 82,-570"/>
<polygon style="fill:none;stroke:black;" points="85.3933,-569.119 80,-560 78.5292,-570.492 85.3933,-569.119"/>
</g>
<!-- 16&#45;&#45;20 -->
<g id="edge24" class="edge"><title>16&#45;&#45;20</title>
<path style="fill:none;stroke:black;" d="M244,-459C247,-449 251,-440 254,-430"/>
<polygon style="fill:none;stroke:black;" points="257.479,-430.584 257,-420 250.774,-428.573 257.479,-430.584"/>
</g>
<!-- 2 -->
<g id="node15" class="node"><title>2</title>
<ellipse style="fill:none;stroke:black;" cx="277" cy="-2473" rx="87.1802" ry="84.8528"/>
<text text-anchor="start" x="223" y="-2500.4" style="font-family:Times New Roman;font-size:14.00;">id(2) at line=&#45;1</text>
<text text-anchor="start" x="223" y="-2468.4" style="font-family:Times New Roman;font-size:14.00;">def f(t)&#45;&gt;</text>
<text text-anchor="start" x="223" y="-2452.4" style="font-family:Times New Roman;font-size:14.00;"> &#160;&#160;&#160;if alp ... 221 ... _</text>
<text text-anchor="start" x="223" y="-2436.4" style="font-family:Times New Roman;font-size:14.00;">print _as[]{\%d_</text>
</g>
<!-- 3 -->
<g id="node16" class="node"><title>3</title>
<ellipse style="fill:none;stroke:black;" cx="277" cy="-2267" rx="99.201" ry="84.8528"/>
<text text-anchor="start" x="214.5" y="-2294.4" style="font-family:Times New Roman;font-size:14.00;">id(3) at line=1</text>
<text text-anchor="start" x="214.5" y="-2262.4" style="font-family:Times New Roman;font-size:14.00;">def f(t)&#45;&gt;</text>
<text text-anchor="start" x="214.5" y="-2246.4" style="font-family:Times New Roman;font-size:14.00;"> &#160;&#160;&#160;if alp ... 92 ... turn a</text>
<text text-anchor="start" x="214.5" y="-2230.4" style="font-family:Times New Roman;font-size:14.00;"> &#160;&#160;&#160;return b</text>
</g>
<!-- 2&#45;&#45;3 -->
<g id="edge12" class="edge"><title>2&#45;&#45;3</title>
<path style="fill:none;stroke:black;" d="M277,-2388C277,-2379 277,-2371 277,-2362"/>
<polygon style="fill:none;stroke:black;" points="280.5,-2362 277,-2352 273.5,-2362 280.5,-2362"/>
</g>
<!-- 4 -->
<g id="node18" class="node"><title>4</title>
<ellipse style="fill:none;stroke:black;" cx="277" cy="-2095" rx="65.7609" ry="50.9117"/>
<text text-anchor="start" x="238.5" y="-2098.4" style="font-family:Times New Roman;font-size:14.00;">id(4) at line=7</text>
<text text-anchor="start" x="238.5" y="-2066.4" style="font-family:Times New Roman;font-size:14.00;">f(1)</text>
</g>
<!-- 3&#45;&#45;4 -->
<g id="edge36" class="edge"><title>3&#45;&#45;4</title>
<path style="fill:none;stroke:black;" d="M277,-2182C277,-2174 277,-2165 277,-2156"/>
<polygon style="fill:none;stroke:black;" points="280.5,-2156 277,-2146 273.5,-2156 280.5,-2156"/>
</g>
<!-- 5 -->
<g id="node19" class="node"><title>5</title>
<ellipse style="fill:none;stroke:black;" cx="277" cy="-1957" rx="65.7609" ry="50.9117"/>
<text text-anchor="start" x="238.5" y="-1960.4" style="font-family:Times New Roman;font-size:14.00;">id(5) at line=7</text>
<text text-anchor="start" x="238.5" y="-1928.4" style="font-family:Times New Roman;font-size:14.00;">f</text>
</g>
<!-- 4&#45;&#45;5 -->
<g id="edge14" class="edge"><title>4&#45;&#45;5</title>
<path style="fill:none;stroke:black;" d="M277,-2044C277,-2035 277,-2027 277,-2018"/>
<polygon style="fill:none;stroke:black;" points="280.5,-2018 277,-2008 273.5,-2018 280.5,-2018"/>
</g>
<!-- 5&#45;&#45;6 -->
<g id="edge26" class="edge"><title>5&#45;&#45;6</title>
<path style="fill:none;stroke:black;" d="M277,-1906C277,-1897 277,-1889 277,-1880"/>
<polygon style="fill:none;stroke:black;" points="280.5,-1880 277,-1870 273.5,-1880 280.5,-1880"/>
</g>
<!-- 14&#45;&#45;20 -->
<g id="edge18" class="edge"><title>14&#45;&#45;20</title>
<path style="fill:none;stroke:black;" d="M120,-473C148,-453 184,-427 214,-405"/>
<polygon style="fill:none;stroke:black;" points="216.1,-407.8 222,-399 211.9,-402.2 216.1,-407.8"/>
</g>
<!-- 25&#45;&#45;25 -->
<g id="edge22" class="edge"><title>25&#45;&#45;25</title>
<path style="fill:none;stroke:black;" d="M347,-89C362,-86 373,-77 373,-62 373,-51 367,-43 357,-38"/>
<polygon style="fill:none;stroke:black;" points="357.584,-34.5212 347,-35 355.573,-41.2259 357.584,-34.5212"/>
</g>
<!-- 9 -->
<g id="node30" class="node"><title>9</title>
<ellipse style="fill:none;stroke:black;" cx="277" cy="-1291" rx="65.7609" ry="50.9117"/>
<text text-anchor="start" x="238.5" y="-1294.4" style="font-family:Times New Roman;font-size:14.00;">id(9) at line=2</text>
<text text-anchor="start" x="238.5" y="-1262.4" style="font-family:Times New Roman;font-size:14.00;">alpha</text>
</g>
<!-- 8&#45;&#45;9 -->
<g id="edge28" class="edge"><title>8&#45;&#45;9</title>
<path style="fill:none;stroke:black;" d="M277,-1378C277,-1370 277,-1361 277,-1352"/>
<polygon style="fill:none;stroke:black;" points="280.5,-1352 277,-1342 273.5,-1352 280.5,-1352"/>
</g>
<!-- 9&#45;&#45;10 -->
<g id="edge30" class="edge"><title>9&#45;&#45;10</title>
<path style="fill:none;stroke:black;" d="M261,-1241C258,-1231 254,-1221 251,-1210"/>
<polygon style="fill:none;stroke:black;" points="254.226,-1208.57 248,-1200 247.521,-1210.58 254.226,-1208.57"/>
</g>
<!-- 18 -->
<g id="node33" class="node"><title>18</title>
<ellipse style="fill:none;stroke:black;" cx="328" cy="-647" rx="70.2092" ry="50.9117"/>
<text text-anchor="start" x="286" y="-650.4" style="font-family:Times New Roman;font-size:14.00;">id(18) at line=6</text>
<text text-anchor="start" x="286" y="-618.4" style="font-family:Times New Roman;font-size:14.00;">return b</text>
</g>
<!-- 9&#45;&#45;18 -->
<g id="edge32" class="edge"><title>9&#45;&#45;18</title>
<path style="fill:none;stroke:black;" d="M298,-1242C302,-1230 306,-1217 309,-1204 343,-1026 337,-812 333,-708"/>
<polygon style="fill:none;stroke:black;" points="336.478,-707.602 332,-698 329.512,-708.299 336.478,-707.602"/>
</g>
<!-- 18&#45;&#45;20 -->
<g id="edge46" class="edge"><title>18&#45;&#45;20</title>
<path style="fill:none;stroke:black;" d="M325,-596C322,-557 316,-504 307,-458 305,-448 303,-439 300,-429"/>
<polygon style="fill:none;stroke:black;" points="303.226,-427.573 297,-419 296.521,-429.584 303.226,-427.573"/>
</g>
<!-- 19 -->
<g id="node39" class="node"><title>19</title>
<ellipse style="fill:none;stroke:black;" cx="424" cy="-509" rx="70.2092" ry="50.9117"/>
<text text-anchor="start" x="382" y="-512.4" style="font-family:Times New Roman;font-size:14.00;">id(19) at line=6</text>
<text text-anchor="start" x="382" y="-480.4" style="font-family:Times New Roman;font-size:14.00;">b</text>
</g>
<!-- 18&#45;&#45;19 -->
<g id="edge44" class="edge"><title>18&#45;&#45;19</title>
<path style="fill:none;stroke:black;" d="M360,-601C368,-589 378,-576 386,-564"/>
<polygon style="fill:none;stroke:black;" points="389.365,-565.262 392,-555 383.541,-561.379 389.365,-565.262"/>
</g>
<!-- 1 -->
<g id="node35" class="node"><title>1</title>
<ellipse style="fill:none;stroke:black;" cx="277" cy="-2679" rx="87.1802" ry="84.8528"/>
<text text-anchor="start" x="223" y="-2706.4" style="font-family:Times New Roman;font-size:14.00;">id(1) at line=&#45;1</text>
<text text-anchor="start" x="223" y="-2674.4" style="font-family:Times New Roman;font-size:14.00;">def f(t)&#45;&gt;</text>
<text text-anchor="start" x="223" y="-2658.4" style="font-family:Times New Roman;font-size:14.00;"> &#160;&#160;&#160;if alp ... 221 ... _</text>
<text text-anchor="start" x="223" y="-2642.4" style="font-family:Times New Roman;font-size:14.00;">print _as[]{\%d_</text>
</g>
<!-- 1&#45;&#45;2 -->
<g id="edge34" class="edge"><title>1&#45;&#45;2</title>
<path style="fill:none;stroke:black;" d="M277,-2594C277,-2585 277,-2577 277,-2568"/>
<polygon style="fill:none;stroke:black;" points="280.5,-2568 277,-2558 273.5,-2568 280.5,-2568"/>
</g>
<!-- 19&#45;&#45;20 -->
<g id="edge40" class="edge"><title>19&#45;&#45;20</title>
<path style="fill:none;stroke:black;" d="M383,-467C367,-450 348,-431 331,-414"/>
<polygon style="fill:none;stroke:black;" points="332.831,-410.951 323,-407 328.221,-416.219 332.831,-410.951"/>
</g>
</g>
</svg>
